<?xml version="1.0" standalone="no"?>
<!DOCTYPE svg PUBLIC "-//W3C//DTD SVG 20010904//EN"
 "http://www.w3.org/TR/2001/REC-SVG-20010904/DTD/svg10.dtd">
<svg version="1.0" xmlns="http://www.w3.org/2000/svg"
 width="1024.000000pt" height="1024.000000pt" viewBox="0 0 1024.000000 1024.000000"
 preserveAspectRatio="xMidYMid meet">
<metadata>
Created by potrace 1.14, written by Peter Selinger 2001-2017
</metadata>
<g transform="translate(0.000000,1024.000000) scale(0.100000,-0.100000)"
fill="#000000" stroke="none">
<path d="M1 10228 c-1 -9 5 -19 12 -21 10 -4 10 -6 0 -6 -7 -1 -13 -11 -12
-23 0 -13 3 -17 6 -10 2 6 11 12 19 12 17 0 19 -20 2 -20 -8 -1 -5 -6 6 -15
10 -7 15 -19 11 -25 -5 -8 -13 -6 -26 6 -17 16 -19 16 -19 1 0 -10 7 -17 15
-17 8 0 15 -4 15 -9 0 -5 -7 -11 -15 -15 -8 -3 -15 -13 -15 -22 0 -15 3 -14
17 4 10 11 25 30 33 41 8 12 20 21 27 21 15 0 17 16 4 24 -5 4 -11 0 -14 -6
-2 -7 -4 -1 -4 14 0 15 4 26 10 25 5 -1 12 4 14 11 3 6 -2 12 -11 12 -9 0 -16
5 -16 10 0 15 19 12 36 -4 16 -17 19 -36 4 -36 -5 0 -10 -5 -10 -11 0 -8 4 -8
15 1 15 13 39 5 30 -11 -4 -5 -1 -9 4 -9 17 0 13 21 -6 36 -17 13 -17 13 0 14
10 0 17 8 17 20 0 18 -7 20 -66 20 -41 0 -63 -4 -59 -10 3 -5 2 -10 -4 -10 -5
0 -12 6 -14 13 -4 7 -6 6 -6 -5z m139 -8 c0 -5 -7 -10 -15 -10 -8 0 -15 5 -15
10 0 6 7 10 15 10 8 0 15 -4 15 -10z"/>
<path d="M173 10233 c14 -4 16 -8 6 -19 -6 -8 -9 -17 -5 -21 3 -3 6 -1 6 5 0
7 6 12 14 12 8 0 16 7 20 15 4 12 -2 15 -27 14 -18 -1 -24 -3 -14 -6z"/>
<path d="M215 10200 c-3 -5 -1 -10 4 -10 6 0 11 5 11 10 0 6 -2 10 -4 10 -3 0
-8 -4 -11 -10z"/>
<path d="M135 10120 c3 -5 8 -10 11 -10 2 0 4 5 4 10 0 6 -5 10 -11 10 -5 0
-7 -4 -4 -10z"/>
<path d="M60 10085 c0 -8 -4 -15 -10 -15 -5 0 -10 -5 -10 -12 0 -6 9 -3 20 7
22 20 26 35 10 35 -5 0 -10 -7 -10 -15z"/>
<path d="M90 10059 c0 -5 5 -7 10 -4 6 3 10 8 10 11 0 2 -4 4 -10 4 -5 0 -10
-5 -10 -11z"/>
<path d="M110 10040 c0 -5 5 -10 11 -10 5 0 7 5 4 10 -3 6 -8 10 -11 10 -2 0
-4 -4 -4 -10z"/>
<path d="M4840 9350 c-526 -58 -993 -302 -1326 -695 -73 -85 -192 -257 -206
-295 -2 -5 -39 1 -83 12 -68 18 -112 21 -295 22 -187 0 -228 -2 -317 -22 -141
-31 -259 -74 -390 -142 -145 -76 -240 -146 -361 -269 -255 -258 -411 -569
-452 -901 -6 -50 -10 -344 -10 -717 l0 -633 -50 -69 c-104 -143 -184 -331
-227 -531 -16 -76 -18 -142 -18 -630 0 -681 4 -715 121 -958 30 -62 54 -118
54 -125 0 -6 5 -19 11 -27 9 -13 10 -12 5 3 -3 11 -2 16 5 12 5 -4 7 -15 4
-25 -8 -26 67 -182 166 -347 l81 -135 -12 -62 c-22 -113 -27 -229 -20 -456 6
-215 8 -229 37 -315 17 -49 38 -124 47 -165 18 -80 98 -257 161 -356 42 -65
165 -221 264 -334 36 -41 92 -105 124 -143 33 -37 63 -65 68 -62 5 4 7 0 4 -7
-2 -7 21 -40 51 -73 31 -33 53 -52 50 -42 -4 11 -2 16 5 12 6 -4 8 -13 5 -21
-3 -7 17 -37 45 -67 38 -42 56 -54 72 -50 22 4 22 4 2 -12 -20 -17 -20 -17 3
-10 16 5 30 1 42 -10 15 -13 23 -14 39 -5 16 8 27 8 42 -1 12 -6 32 -9 45 -6
16 3 24 0 24 -9 0 -8 5 -14 10 -14 6 0 10 8 10 18 0 14 2 14 9 3 13 -20 91
-24 91 -5 0 8 5 14 10 14 6 0 10 -7 10 -15 0 -9 9 -15 24 -15 13 0 33 -3 43
-6 15 -5 15 -4 3 5 -8 6 -10 11 -4 11 5 0 19 -7 30 -15 10 -8 27 -15 38 -15
12 0 16 -5 13 -15 -4 -8 -1 -17 6 -21 7 -4 9 -3 4 1 -4 5 0 16 9 26 13 15 21
16 37 8 16 -9 17 -13 6 -20 -10 -6 -4 -9 19 -9 20 0 32 5 32 13 0 9 14 14 40
15 39 2 39 1 33 -29 -6 -29 -5 -30 23 -23 16 4 31 11 32 16 7 17 51 7 67 -14
10 -14 18 -19 23 -13 11 16 53 16 69 -1 17 -17 43 -19 43 -3 0 14 52 2 62 -14
6 -9 12 -9 27 0 16 10 21 9 33 -8 12 -18 25 -20 166 -22 131 -2 152 0 147 13
-4 12 -2 11 8 -1 10 -14 27 -16 84 -13 53 2 72 0 76 -10 8 -19 508 -18 515 2
5 15 362 18 362 2 0 -16 347 -13 353 3 4 9 8 8 17 -3 9 -12 13 -12 17 -2 4 10
8 9 17 -3 11 -15 14 -15 44 2 25 14 35 16 50 6 12 -7 24 -8 33 -2 8 5 44 8 82
8 51 -2 67 -6 67 -16 0 -11 8 -13 33 -8 17 4 35 13 40 19 5 8 10 7 16 -3 5 -7
27 -15 50 -17 32 -3 41 -1 41 11 0 14 32 16 255 14 146 0 255 -5 255 -10 0 -5
5 -9 10 -9 6 0 10 9 10 20 0 11 5 20 10 20 6 0 10 -9 10 -20 0 -11 5 -20 10
-20 6 0 10 5 10 11 0 8 14 10 44 6 31 -5 46 -3 49 6 3 9 7 9 17 0 8 -7 22 -8
42 -3 38 11 201 0 210 -14 4 -6 10 -7 15 -3 4 5 1 12 -7 17 -8 5 -11 13 -6 17
5 4 11 2 13 -5 3 -6 22 -15 44 -18 39 -7 50 -18 27 -27 -8 -2 -9 -8 -4 -13 5
-5 11 -4 13 4 6 16 60 16 65 0 3 -8 12 -5 28 10 26 24 26 24 90 26 256 8 274
9 235 16 l-40 7 37 2 c20 0 40 6 43 11 4 6 12 10 18 9 7 -1 67 -1 135 0 96 1
122 4 122 15 0 16 43 26 111 26 27 0 49 5 49 10 0 6 9 10 20 10 11 0 20 5 20
10 0 6 9 10 20 10 11 0 20 5 20 11 0 7 10 9 25 5 16 -4 25 -2 25 5 0 6 7 9 14
6 10 -4 13 -1 9 9 -6 17 -20 18 -26 2 -2 -7 -8 -10 -12 -5 -5 4 0 14 11 21 13
10 21 11 25 4 4 -6 17 -8 30 -5 39 8 132 46 138 55 8 12 100 34 112 27 5 -4 9
1 9 9 0 9 6 16 14 16 7 0 25 15 41 33 22 26 26 28 20 10 -3 -13 -4 -23 -1 -23
15 0 65 54 59 63 -3 6 -1 7 5 3 6 -3 13 -2 17 4 3 5 15 10 26 10 10 0 19 5 19
10 0 6 9 10 20 10 11 0 20 5 20 10 0 6 7 10 16 10 9 0 29 14 44 30 15 17 35
30 44 30 9 0 16 8 16 20 0 16 7 20 34 20 19 0 36 -6 39 -12 8 -23 18 -1 22 44
3 42 4 43 44 52 23 5 41 14 41 20 0 16 39 38 52 30 5 -4 21 6 34 21 14 16 29
25 38 22 9 -4 18 -2 21 3 4 6 -5 10 -19 10 -14 0 -26 5 -26 10 0 6 11 10 25
10 16 0 25 6 25 15 0 8 5 15 10 15 6 0 10 -7 10 -16 0 -8 5 -12 10 -9 8 5 7
11 0 20 -8 10 -9 19 -1 32 9 16 10 16 11 1 0 -9 5 -20 12 -24 7 -5 9 -2 5 9
-3 8 1 21 9 27 8 7 14 9 15 4 0 -5 4 1 9 14 6 14 17 22 27 20 12 -2 17 3 15
14 -2 10 2 18 7 18 15 0 38 52 33 74 -3 15 0 18 18 13 14 -3 23 0 27 10 5 12
7 12 14 1 6 -9 9 -7 9 8 0 11 3 24 7 28 4 4 8 13 9 19 3 45 18 77 35 77 19 0
24 14 20 56 -1 12 5 27 14 34 8 7 12 16 9 21 -3 5 2 9 10 9 11 0 17 15 22 51
4 32 10 46 15 38 4 -8 11 -10 15 -6 4 4 0 15 -9 25 -22 24 -21 32 3 32 11 0
20 5 20 11 0 5 4 8 9 4 5 -3 13 0 17 6 4 8 3 9 -4 5 -16 -10 -16 46 0 62 9 9
9 12 0 12 -7 0 -12 9 -12 20 0 11 7 20 15 20 8 0 15 6 15 14 0 8 9 21 20 29
17 12 24 38 29 110 1 5 5 5 11 2 6 -3 7 1 4 9 -3 9 -1 16 5 16 6 0 8 7 5 15
-4 10 0 15 15 15 14 0 19 5 15 15 -4 11 -2 13 9 10 8 -4 21 1 30 9 20 20 27
20 27 0 0 -8 5 -12 10 -9 7 4 8 11 1 18 -13 17 -2 67 14 61 7 -3 15 2 19 11 6
16 -38 76 -156 214 -21 24 -38 50 -38 57 0 8 -3 13 -7 12 -5 -2 -10 2 -12 7
-2 6 10 9 27 7 20 -2 36 3 49 16 10 11 29 22 43 25 24 4 24 4 -3 6 -17 0 -26
5 -22 11 4 6 15 8 26 5 16 -5 19 -1 19 29 0 25 4 36 15 36 8 0 15 7 15 15 0 8
5 15 11 15 6 0 9 7 5 15 -3 9 0 15 10 15 8 0 13 4 10 9 -7 10 22 25 42 22 6
-1 12 3 12 9 0 5 -4 10 -9 10 -5 0 -7 9 -4 21 4 14 9 17 16 10 8 -8 15 1 24
27 7 20 13 45 13 55 0 9 5 17 10 17 6 0 10 9 10 21 0 11 5 17 10 14 6 -3 10 4
10 17 1 30 21 56 40 50 13 -5 13 -3 1 12 -12 14 -11 19 6 34 23 20 37 52 23
52 -17 0 -11 26 11 54 20 25 20 28 5 45 -16 17 -15 19 4 24 13 3 18 10 14 21
-5 14 -8 14 -21 1 -8 -9 -19 -12 -25 -9 -6 4 -6 9 -1 13 5 3 12 14 16 24 5 14
13 17 29 11 19 -6 21 -4 12 7 -20 26 -23 47 -7 45 9 0 18 5 20 12 3 6 -2 12
-11 12 -21 0 -20 6 6 32 20 20 21 23 5 26 -17 4 -24 22 -8 22 10 0 9 50 -2 67
-5 7 -4 13 2 13 19 0 10 87 -11 110 -11 12 -17 24 -14 27 3 4 6 2 6 -3 0 -5
10 7 21 26 14 22 17 36 10 38 -16 5 -13 22 4 22 8 0 15 7 15 16 0 11 -6 15
-20 11 -17 -4 -18 -2 -9 14 11 22 25 25 32 7 2 -7 8 -10 12 -6 14 13 -21 37
-45 31 -16 -4 -21 -3 -16 6 4 6 12 8 18 5 7 -5 9 -1 5 9 -5 12 -1 17 13 17 18
0 19 3 8 20 -8 13 -16 16 -22 10 -19 -19 -29 -10 -12 9 17 18 17 20 -1 30 -17
10 -17 11 0 22 9 5 15 14 12 20 -4 5 -1 9 4 9 6 0 11 7 11 15 0 8 9 20 19 27
15 9 17 17 10 35 -8 21 -7 24 10 18 12 -3 21 0 25 10 4 10 2 14 -5 9 -6 -4
-15 0 -20 7 -14 23 -10 30 15 23 26 -6 45 21 26 40 -15 15 -12 26 6 26 8 0 12
5 9 10 -3 6 -15 10 -26 10 -26 0 -24 16 3 25 21 7 20 8 -12 14 -34 7 -34 7
-10 16 14 5 30 10 35 10 6 1 14 3 18 3 4 1 3 11 -3 22 -8 16 -8 22 3 26 20 7
10 42 -15 50 -19 6 -19 7 3 31 14 14 31 22 42 19 11 -2 17 0 14 7 -2 6 -14 14
-28 18 -23 6 -23 6 5 10 31 4 49 29 22 29 -21 0 -20 20 2 46 20 25 52 38 52
22 0 -6 2 -9 5 -6 3 3 3 12 -1 21 -5 13 -9 14 -24 4 -28 -17 -35 -2 -12 24 14
14 28 20 41 16 12 -3 19 -1 15 4 -7 12 -54 11 -54 -1 0 -5 -4 -10 -10 -10 -14
0 -12 13 5 36 13 16 16 17 25 4 8 -12 10 -12 10 -1 0 8 7 11 20 8 11 -3 20 -1
20 5 0 6 -11 8 -25 6 -17 -4 -25 -1 -25 9 0 9 6 13 15 10 8 -4 17 -2 20 2 3 5
14 7 25 4 26 -7 25 2 -1 28 -11 11 -17 24 -13 27 3 4 9 1 11 -5 6 -17 21 -16
39 1 8 9 23 12 36 8 21 -6 22 -6 3 -10 -23 -5 -45 -21 -45 -33 0 -14 17 -11
34 6 18 18 33 19 39 3 2 -7 8 -9 13 -5 5 4 2 12 -5 17 -12 7 -11 11 2 25 18
18 24 50 7 40 -5 -3 -10 -1 -10 4 0 14 27 14 32 0 2 -7 9 -5 17 5 12 14 12 16
-1 11 -9 -4 -18 1 -22 10 -4 10 -2 14 5 9 27 -16 -4 24 -121 157 -191 217
-210 239 -285 324 -38 43 -76 87 -84 99 -8 12 -21 25 -28 29 -7 4 -13 13 -13
20 0 6 17 -5 38 -24 74 -69 82 -75 92 -59 11 17 -27 73 -42 64 -7 -4 -8 -2 -4
5 4 6 0 14 -8 17 -9 3 -16 12 -16 18 0 18 -45 58 -55 49 -4 -5 -5 -3 -1 4 4 7
-40 65 -105 140 -79 92 -126 157 -166 231 -137 255 -321 485 -521 653 -53 44
-97 84 -97 89 0 15 -16 25 -38 25 -13 0 -21 5 -19 13 1 8 -2 11 -8 7 -6 -4
-26 5 -45 19 -18 14 -35 26 -38 26 -2 0 -27 13 -56 28 -48 27 -50 29 -22 29
17 0 28 -4 25 -9 -8 -13 10 -9 31 6 22 16 55 10 55 -10 0 -8 3 -13 8 -12 20 7
88 -32 135 -76 10 -10 39 -27 63 -37 24 -11 44 -25 44 -31 0 -7 5 -6 14 1 11
10 22 9 47 -5 23 -11 34 -13 37 -5 2 6 9 11 15 11 6 0 19 8 30 18 11 9 18 12
14 6 -8 -14 24 -52 59 -70 23 -12 25 -12 20 2 -4 10 2 24 15 35 33 28 42 24
13 -6 -9 -9 -13 -19 -10 -23 4 -3 11 -1 15 6 4 7 14 11 22 9 8 -2 11 -2 6 0
-4 3 -5 9 -1 14 3 5 17 0 31 -11 28 -22 52 -17 32 6 -6 8 -9 17 -5 21 3 3 6 1
6 -5 0 -7 5 -12 12 -12 7 0 32 -19 57 -42 24 -24 9 -2 -35 48 -146 168 -281
319 -318 353 -35 34 -36 34 -56 16 -26 -23 -25 -31 5 -71 14 -18 25 -41 25
-52 0 -19 -61 -82 -79 -82 -20 0 -77 48 -86 74 -8 23 -6 30 8 41 22 16 22 44
0 60 -15 11 -22 10 -46 -7 l-28 -20 -37 29 c-32 26 -37 36 -37 71 -1 23 1 40
3 38 2 -2 14 7 27 20 32 32 60 30 93 -6 34 -37 58 -28 42 16 -9 27 -9 28 5 10
8 -11 15 -15 15 -8 0 12 -40 43 -49 38 -3 -2 -7 8 -8 24 -1 19 9 40 33 68 l35
41 -83 93 c-222 247 -513 585 -593 688 -124 161 -192 236 -291 321 -163 140
-338 242 -531 308 -162 55 -237 66 -463 66 -178 0 -221 -3 -322 -24 l-117 -24
-66 61 c-228 214 -583 380 -945 443 -133 23 -376 32 -500 19z m312 -230 c151
-13 244 -32 393 -81 373 -124 687 -361 904 -682 47 -70 131 -227 131 -245 0
-5 -27 -19 -60 -31 -33 -12 -98 -42 -144 -66 l-84 -44 -27 62 c-65 150 -238
357 -404 483 -49 37 -142 93 -216 129 -418 204 -833 204 -1251 0 -374 -182
-637 -506 -754 -925 -13 -47 -25 -87 -26 -89 -2 -2 -47 19 -101 47 -112 57
-232 101 -348 128 -61 14 -118 19 -240 18 -177 -1 -243 -13 -391 -75 -271
-113 -505 -395 -570 -686 -8 -38 -18 -126 -21 -198 -9 -222 33 -393 144 -588
34 -61 63 -114 63 -117 0 -3 -26 -14 -57 -24 -32 -9 -95 -35 -142 -57 -99 -46
-81 -59 -174 120 -124 240 -163 407 -154 675 6 183 21 264 78 416 146 389 480
710 859 824 122 36 196 46 363 46 166 0 288 -20 425 -68 l78 -28 46 96 c221
457 673 811 1181 925 184 40 318 50 499 35z m1898 -499 c336 -76 613 -269 842
-587 114 -159 212 -393 243 -583 26 -155 17 -402 -20 -536 -15 -55 -29 -109
-32 -121 -4 -17 3 -23 39 -33 57 -17 232 -100 311 -147 104 -63 243 -172 335
-263 170 -168 287 -331 392 -546 147 -300 199 -542 187 -860 -14 -371 -132
-708 -345 -990 -67 -88 -235 -258 -327 -330 -140 -110 -334 -207 -515 -259
-106 -30 -252 -46 -432 -46 l-178 0 -49 35 c-26 19 -69 44 -95 55 l-46 21 0
124 0 124 343 3 342 3 125 43 c245 84 399 191 557 387 65 80 156 225 188 300
36 84 75 211 97 313 31 144 33 431 4 561 -86 396 -331 760 -657 977 -176 117
-388 206 -589 244 -57 12 -106 22 -108 25 -2 2 19 50 46 107 98 200 135 348
135 548 0 162 -18 261 -74 407 -117 301 -345 540 -615 645 -105 41 -234 68
-326 68 l-76 0 -31 54 c-16 30 -62 100 -102 155 -39 56 -68 105 -65 108 27 27
367 23 496 -6z m-1992 -133 c5 -13 6 -65 3 -117 -5 -82 -9 -95 -26 -101 -11
-4 -30 -4 -42 1 -22 8 -23 14 -23 112 0 112 6 127 52 127 21 0 31 -6 36 -22z
m-365 -30 c9 -7 25 -51 37 -97 19 -76 20 -85 5 -107 -16 -24 -40 -30 -63 -16
-13 9 -62 153 -62 184 0 17 35 48 55 48 6 0 19 -6 28 -12z m715 -20 c15 -15
15 -53 0 -81 -6 -12 -16 -44 -22 -72 -9 -37 -18 -53 -38 -64 -24 -14 -28 -14
-47 3 -12 11 -21 28 -21 39 0 27 40 159 52 175 13 15 60 16 76 0z m-1046 -120
c17 -14 88 -144 88 -161 0 -19 -33 -47 -56 -47 -19 0 -33 16 -69 77 -25 43
-45 80 -45 84 0 13 42 59 54 59 7 0 19 -6 28 -12z m1356 -24 c31 -21 27 -39
-22 -118 -51 -83 -65 -94 -100 -78 -37 16 -34 52 11 126 58 97 66 102 111 70z
m-1584 -238 c44 -39 59 -59 59 -79 0 -33 -19 -57 -45 -57 -25 0 -138 107 -138
132 0 21 34 58 53 58 6 -1 38 -25 71 -54z m1864 2 c2 -19 -10 -37 -58 -81 -34
-32 -70 -57 -80 -57 -24 0 -50 37 -43 59 8 23 52 69 97 102 35 26 42 28 60 15
12 -7 22 -24 24 -38z m-747 -61 c171 -45 294 -106 444 -223 175 -136 319 -325
380 -500 l23 -65 6 48 c18 135 57 235 130 336 175 243 463 374 741 338 181
-25 301 -85 436 -221 71 -71 95 -103 133 -181 85 -172 80 -102 83 -1019 2
-570 7 -821 14 -837 11 -21 15 -21 388 -25 366 -4 378 -5 436 -28 43 -17 77
-40 120 -84 73 -73 116 -158 146 -282 19 -79 21 -108 16 -259 -3 -93 -11 -191
-17 -218 l-12 -47 -509 0 c-314 0 -517 -4 -529 -10 -29 -16 -40 -66 -40 -189
0 -125 10 -176 39 -213 l19 -23 395 0 c218 0 398 -3 402 -7 11 -10 -68 -99
-138 -155 -87 -70 -158 -108 -261 -137 -87 -26 -94 -26 -412 -26 l-324 0 0
190 0 189 28 15 c37 19 75 62 103 116 30 57 32 167 5 218 -26 50 -85 111 -130
135 -58 30 -174 30 -231 0 -131 -70 -185 -226 -122 -355 25 -50 77 -109 106
-119 6 -3 13 -78 17 -196 l7 -193 -182 0 -182 0 7 163 c6 154 6 163 -14 187
-20 24 -22 24 -49 10 l-28 -16 -3 -171 -2 -172 -151 -3 c-83 -2 -153 -1 -155
1 -2 2 -4 80 -4 172 0 156 -1 169 -19 179 -27 14 -47 13 -65 -6 -13 -13 -16
-44 -16 -180 l0 -164 -145 0 c-80 0 -148 0 -151 0 -4 0 -7 43 -8 95 -1 102 -7
115 -53 115 -33 0 -43 -29 -43 -124 l0 -86 -140 0 -140 0 0 86 c0 94 -10 124
-42 124 -46 0 -58 -26 -58 -122 l0 -88 -150 0 -150 0 0 106 0 107 34 38 c45
49 61 105 45 162 -42 159 -247 200 -336 66 -24 -36 -28 -53 -28 -110 0 -61 3
-71 33 -107 32 -41 32 -42 32 -151 l0 -111 -832 -1 c-1469 -1 -1628 1 -1702
16 -81 17 -190 68 -269 127 l-59 43 754 5 c657 5 760 8 806 22 60 19 137 57
199 100 86 58 185 199 226 318 22 65 22 71 27 926 5 792 6 863 22 881 25 27
58 104 58 136 0 60 -52 142 -112 173 -15 8 -53 14 -86 14 -76 0 -139 -38 -171
-102 -37 -77 -25 -156 35 -227 l29 -35 1 -750 c0 -810 -1 -837 -52 -937 -40
-80 -145 -180 -219 -210 l-60 -24 -848 -3 -848 -3 -35 75 c-59 123 -55 248 11
361 77 130 240 205 397 181 42 -6 44 -8 67 -67 34 -88 112 -199 189 -269 208
-191 545 -228 812 -89 93 48 193 136 246 216 21 31 52 96 68 143 l31 85 3 485
2 485 27 53 c49 100 42 185 -22 260 -117 136 -342 67 -376 -115 -12 -64 11
-142 55 -186 38 -38 114 -77 151 -77 l25 0 0 -175 0 -175 -78 0 c-86 0 -112
11 -137 61 -15 28 -18 29 -91 29 l-76 0 62 -47 c55 -41 150 -151 150 -173 0
-25 35 -40 90 -40 32 0 61 -3 63 -7 3 -5 7 -42 9 -83 l3 -75 -56 -3 -55 -3
-12 -67 c-13 -74 -17 -65 62 -127 l28 -22 -37 -67 -37 -67 -54 31 -55 31 -54
-48 c-30 -26 -55 -52 -55 -59 0 -6 7 -28 15 -47 8 -20 15 -39 15 -41 0 -5
-125 -46 -142 -46 -5 0 -18 20 -29 45 l-20 45 -67 0 -68 0 -22 -46 c-26 -52
-35 -53 -125 -15 l-47 20 16 38 c9 21 18 43 20 48 2 6 -22 33 -54 62 l-59 51
-46 -30 c-25 -16 -50 -27 -56 -24 -19 12 -73 117 -67 132 3 8 26 27 51 42 39
23 44 30 38 52 -3 14 -9 45 -12 70 l-6 45 -57 3 c-53 3 -58 5 -58 26 0 44 20
130 33 138 6 4 37 8 67 8 l55 0 23 48 c23 48 59 91 126 150 21 18 35 36 31 40
-4 4 -43 7 -88 7 -71 0 -91 -4 -150 -32 -88 -42 -154 -110 -198 -208 l-34 -74
-60 -1 c-279 -2 -515 -188 -589 -465 -24 -87 -31 -249 -17 -340 35 -216 165
-453 339 -617 124 -117 250 -190 440 -256 l107 -37 428 -3 c235 -2 427 -7 427
-11 0 -4 -9 -16 -21 -27 -66 -60 -139 -213 -139 -292 l0 -34 -312 5 c-353 5
-423 15 -611 86 -217 81 -362 175 -528 340 -170 170 -271 316 -351 507 -106
254 -131 557 -68 822 76 318 314 623 595 761 97 48 210 81 276 81 18 0 66 16
107 35 119 57 211 79 332 78 107 0 237 -25 302 -59 17 -9 31 -14 33 -12 2 2
-1 35 -6 73 -28 189 44 425 175 573 64 73 167 154 252 198 64 33 196 77 265
89 35 5 37 8 44 53 15 110 49 223 94 318 183 384 555 671 969 749 122 23 361
14 483 -18z m-2235 -508 c116 -35 242 -112 317 -193 l28 -30 -60 -59 -59 -59
-68 56 c-118 98 -223 136 -372 136 -139 0 -274 -53 -374 -146 -26 -24 -52 -44
-58 -44 -7 0 -37 25 -68 55 l-57 56 65 60 c103 97 237 162 387 189 75 14 240
3 319 -21z m-44 -358 c32 -12 79 -42 105 -66 l48 -44 -56 -56 -56 -57 -38 26
c-46 32 -124 56 -180 56 -58 0 -138 -26 -173 -55 -17 -14 -34 -25 -39 -25 -5
0 -32 24 -61 53 l-53 54 40 36 c45 41 122 83 178 97 66 16 221 6 285 -19z
m-696 -76 c12 -8 27 -27 33 -44 24 -56 -34 -120 -95 -105 -64 16 -80 96 -28
142 29 25 61 28 90 7z m6094 -100 c4 3 13 -2 20 -10 15 -18 7 -19 -21 -5 -10
6 -18 18 -18 28 1 16 2 15 6 -1 2 -9 8 -15 13 -12z m-5922 -151 c43 -30 17
-104 -36 -104 -59 0 -82 63 -36 99 32 25 43 26 72 5z m403 -7 c49 -32 74 -87
60 -130 -33 -99 -162 -122 -218 -38 -44 65 -21 145 51 177 44 19 68 17 107 -9z
m5814 -17 c3 -5 2 -10 -4 -10 -5 0 -13 5 -16 10 -3 6 -2 10 4 10 5 0 13 -4 16
-10z m-6385 -150 c28 -28 25 -64 -6 -89 -33 -26 -58 -27 -84 -1 -24 24 -26 57
-4 88 19 28 67 29 94 2z m1800 -40 c40 -75 -49 -153 -118 -104 -22 15 -30 62
-16 99 18 45 111 48 134 5z m-1268 -157 c26 -23 24 -78 -4 -97 -30 -21 -54
-20 -78 4 -57 57 22 147 82 93z m771 -174 c30 -33 34 -64 12 -96 -18 -26 -77
-47 -105 -38 -54 17 -77 86 -44 133 35 50 92 50 137 1z m4547 -69 c22 -22 27
-72 7 -88 -6 -6 -24 -13 -39 -17 -21 -5 -33 -1 -52 19 -31 31 -32 45 -5 80 25
31 61 34 89 6z m-241 -165 c35 -17 43 -45 25 -80 -8 -15 -11 -31 -8 -36 3 -5
29 -9 59 -9 48 0 53 2 59 26 5 17 19 30 42 40 32 14 39 13 72 -3 46 -22 63
-73 42 -123 -23 -55 -39 -60 -190 -53 l-135 6 -42 42 c-42 41 -49 62 -43 120
3 29 28 65 53 75 31 12 34 12 66 -5z m551 -75 c29 -29 26 -74 -6 -99 -15 -12
-32 -21 -39 -21 -7 0 -24 9 -39 21 -48 38 -22 119 39 119 14 0 34 -9 45 -20z
m1038 -275 c-3 -3 -9 2 -12 12 -6 14 -5 15 5 6 7 -7 10 -15 7 -18z m507 -765
c-3 -5 14 -11 37 -13 34 -3 30 -4 -15 -4 -35 0 -53 3 -45 8 7 5 9 9 5 9 -5 0
-5 5 -2 10 4 6 11 8 16 4 5 -3 7 -9 4 -14z m45 10 c0 -5 -4 -10 -10 -10 -5 0
-10 5 -10 10 0 6 5 10 10 10 6 0 10 -4 10 -10z m-160 -114 c0 -2 -7 -9 -15
-16 -13 -11 -14 -10 -9 4 5 14 24 23 24 12z m-2575 -120 c65 -28 83 -116 32
-164 -56 -53 -132 -48 -168 12 -39 64 -10 133 66 158 30 9 33 9 70 -6z m699
-102 c67 -68 -16 -174 -102 -130 -16 8 -32 23 -36 31 -35 92 69 167 138 99z
m460 1 c47 -44 32 -115 -29 -135 -43 -14 -68 -7 -95 27 -28 36 -25 69 9 104
37 37 78 38 115 4z m1326 -320 c0 -2 -16 -5 -35 -7 -38 -4 -49 8 -12 14 20 4
47 0 47 -7z m-130 -345 c0 -5 -5 -10 -11 -10 -5 0 -7 5 -4 10 3 6 8 10 11 10
2 0 4 -4 4 -10z m20 -90 c0 -5 -4 -10 -10 -10 -5 0 -10 5 -10 10 0 6 5 10 10
10 6 0 10 -4 10 -10z m0 -110 c0 -5 -2 -10 -4 -10 -3 0 -8 5 -11 10 -3 6 -1
10 4 10 6 0 11 -4 11 -10z m-4 -57 c-10 -10 -19 5 -10 18 6 11 8 11 12 0 2 -7
1 -15 -2 -18z m-5328 -61 l3 -73 -78 -104 c-77 -104 -78 -105 -119 -105 l-42
0 -12 68 c-17 90 -59 180 -110 236 l-42 45 94 4 c51 2 140 3 198 3 l105 -1 3
-73z m640 -44 l-3 -123 -35 -5 c-47 -8 -85 -34 -109 -76 l-20 -34 -83 0 c-68
0 -85 3 -95 18 -6 9 -41 58 -77 107 l-66 90 0 72 0 71 245 1 246 2 -3 -123z
m520 -60 l2 -178 -56 0 c-54 0 -58 2 -103 49 -38 41 -54 50 -93 56 l-48 7 0
119 0 118 103 4 c56 2 122 3 147 3 l45 -1 3 -177z m382 83 c0 -102 -5 -135
-21 -125 -16 9 -128 -57 -164 -97 -26 -29 -43 -39 -65 -39 l-30 0 0 173 c0 96
3 177 7 180 3 4 66 7 140 7 l133 0 0 -99z m400 -81 l0 -180 -41 0 c-34 0 -49
7 -92 46 -29 25 -78 57 -109 72 l-58 27 0 108 0 107 150 0 150 0 0 -180z m408
-2 l2 -178 -155 0 -155 0 0 180 0 181 153 -3 152 -3 3 -177z m450 55 l3 -121
-106 -57 c-103 -55 -106 -56 -177 -53 l-73 3 -3 165 c-1 90 0 170 3 177 3 11
42 13 177 11 l173 -3 3 -122z m-3428 47 c83 -23 149 -112 150 -201 0 -35 5
-50 20 -60 18 -12 22 -34 35 -184 19 -218 19 -212 -10 -240 l-24 -25 -224 0
c-307 0 -292 -16 -263 287 14 147 18 163 40 163 9 0 15 22 18 70 7 91 36 137
109 174 56 28 93 32 149 16z m773 -222 l66 -88 -130 0 -130 0 62 90 c34 49 63
89 65 87 1 -1 32 -41 67 -89z m1495 -54 c108 -45 160 -168 113 -269 -22 -47
-74 -99 -114 -114 -78 -30 -196 8 -241 76 -109 164 63 382 242 307z m3666 -13
c3 -5 -1 -11 -9 -15 -9 -3 -15 0 -15 9 0 16 16 20 24 6z m-34 -105 c0 -3 -4
-8 -10 -11 -5 -3 -10 -1 -10 4 0 6 5 11 10 11 6 0 10 -2 10 -4z m-4192 -108
l-3 -103 -42 3 -43 4 0 -81 0 -81 -45 0 -45 0 0 75 0 75 -145 0 -145 0 0 -75
0 -75 -45 0 -45 0 0 74 0 75 -42 3 -43 3 -3 103 -3 102 326 0 326 0 -3 -102z
m-2474 24 c8 -10 17 -29 21 -43 9 -36 -36 -89 -75 -89 -77 0 -98 115 -27 145
34 14 59 10 81 -13z m208 1 c37 -43 26 -103 -21 -123 -73 -30 -132 51 -85 118
19 28 83 31 106 5z m1471 -15 c-6 -7 -52 -69 -103 -138 -51 -69 -96 -126 -101
-128 -8 -3 -209 259 -209 272 0 3 95 6 211 6 168 0 209 -3 202 -12z m2790 -28
c81 -30 166 -115 195 -193 12 -32 22 -63 22 -70 0 -7 20 -20 45 -30 51 -22
100 -72 127 -134 17 -39 19 -66 16 -342 l-3 -299 -30 -44 c-18 -25 -49 -52
-75 -66 -45 -23 -46 -23 -442 -20 l-396 3 -44 30 c-23 17 -54 51 -68 75 -25
44 -25 49 -28 307 -2 168 1 282 8 317 16 79 59 139 125 177 45 25 55 36 55 58
0 59 77 160 158 208 96 57 222 65 335 23z m410 -12 c55 -64 -43 -148 -103 -88
-22 22 -24 37 -10 75 18 47 77 54 113 13z m702 -13 c41 -9 89 -22 108 -30 49
-20 97 -63 97 -86 0 -32 -49 -68 -124 -92 -61 -19 -93 -22 -236 -22 -142 0
-175 3 -235 22 -38 12 -86 36 -105 52 -34 29 -35 30 -20 58 40 72 157 109 353
112 48 0 121 -6 162 -14z m-5969 -10 c28 -19 48 -69 40 -100 -16 -65 -104 -88
-151 -40 -72 71 28 198 111 140z m-255 -34 c23 -24 29 -38 29 -74 0 -38 -5
-49 -31 -71 -44 -38 -101 -36 -141 4 -26 26 -30 36 -25 67 16 96 106 136 168
74z m7206 -23 c-3 -7 -5 -2 -5 12 0 14 2 19 5 13 2 -7 2 -19 0 -25z m-3103 1
c14 -20 23 -22 102 -20 69 2 93 6 112 22 74 58 164 -40 100 -108 -27 -29 -80
-31 -108 -3 -17 17 -33 20 -102 20 -70 0 -85 -3 -105 -22 -32 -30 -85 -29
-118 2 -31 29 -32 68 -4 104 27 35 100 38 123 5z m-4388 -43 c87 -87 -8 -217
-116 -161 -38 20 -64 69 -55 104 22 91 108 120 171 57z m7470 7 c-10 -10 -19
5 -10 18 6 11 8 11 12 0 2 -7 1 -15 -2 -18z m-6541 -68 c29 -28 31 -45 10 -84
-24 -48 -78 -56 -115 -16 -70 74 33 173 105 100z m207 8 c29 -26 24 -87 -8
-112 -15 -12 -34 -21 -44 -21 -10 0 -29 9 -44 21 -33 26 -36 79 -6 109 24 24
77 26 102 3z m4958 -120 c128 -48 373 -47 528 2 42 14 81 25 85 25 5 0 7 -51
5 -114 -3 -105 -5 -117 -27 -140 -45 -48 -98 -57 -331 -56 -117 0 -230 5 -251
10 -22 6 -54 24 -73 40 -33 29 -33 30 -39 142 -3 61 -3 116 0 121 3 4 12 5 22
1 9 -4 45 -18 81 -31z m1217 -29 c-3 -3 -12 -4 -19 -1 -8 3 -5 6 6 6 11 1 17
-2 13 -5z m-7514 -24 c75 -59 45 -164 -52 -177 -35 -5 -44 -2 -71 25 -20 21
-30 40 -30 62 0 37 23 85 47 99 29 17 78 12 106 -9z m2939 5 c141 -30 219 -88
189 -143 -13 -25 -114 -69 -198 -87 -173 -37 -422 0 -506 75 -29 25 -30 29
-18 57 16 39 85 77 176 96 93 20 265 21 357 2z m-2259 -35 c82 -91 -49 -210
-140 -127 -30 27 -38 69 -19 106 34 66 109 75 159 21z m3912 16 c28 -12 65
-39 82 -59 61 -70 64 -99 61 -554 -3 -452 -3 -451 -71 -521 -71 -75 -49 -72
-600 -72 l-495 0 -48 33 c-27 18 -62 53 -79 81 l-30 49 -3 421 c-2 367 -1 427
13 471 19 56 54 107 91 131 63 42 82 43 564 43 l465 1 50 -24z m-2485 -45 c38
-27 62 -79 56 -125 -6 -53 -34 -88 -84 -106 -87 -30 -172 33 -172 127 0 106
114 165 200 104z m-451 -64 c55 -28 60 -47 63 -248 4 -285 27 -271 -447 -267
-310 3 -343 5 -369 21 -50 33 -58 71 -54 258 3 188 11 212 79 236 49 17 695
18 728 0z m-1456 -87 c62 -68 17 -170 -75 -170 -47 1 -65 11 -92 52 -21 32
-15 74 16 113 42 53 105 55 151 5z m2366 -91 c145 -37 384 -20 510 37 29 13
55 24 57 24 9 0 3 -353 -6 -370 -15 -28 -86 -66 -155 -84 -199 -49 -448 -18
-540 68 l-35 33 0 176 0 176 48 -20 c26 -12 80 -29 121 -40z m-2073 -3 c56
-56 42 -131 -30 -161 -67 -28 -136 20 -136 97 0 32 6 46 31 69 44 41 90 40
135 -5z m6082 -108 c115 -54 145 -209 60 -312 -38 -46 -87 -67 -158 -67 -98
-1 -160 37 -197 119 -20 42 -24 64 -19 98 21 158 165 232 314 162z m967 -5
c-9 -8 -18 -13 -21 -10 -8 8 19 36 29 30 4 -2 0 -11 -8 -20z m-7472 -63 c66
-52 24 -160 -63 -160 -33 0 -80 53 -80 90 0 42 47 90 88 90 16 0 41 -9 55 -20z
m2038 -27 c16 -10 39 -37 50 -61 29 -58 19 -104 -31 -154 -32 -32 -44 -38 -81
-38 -145 0 -197 177 -74 251 38 24 98 24 136 2z m4823 -4 c51 -40 23 -129 -41
-129 -76 0 -100 112 -30 140 33 13 42 12 71 -11z m-6351 -81 c33 -17 46 -39
47 -77 0 -50 -32 -81 -85 -81 -43 0 -65 15 -79 54 -10 30 13 85 42 101 33 18
47 18 75 3z m1904 -163 c84 -35 147 -45 273 -45 128 0 238 19 313 54 30 14 57
26 60 26 4 0 7 -82 7 -183 0 -174 -1 -184 -22 -206 -54 -59 -181 -91 -358 -91
-175 0 -318 48 -347 117 -18 45 -19 368 0 360 6 -3 40 -17 74 -32z m-1386 -61
c9 -11 63 -14 285 -14 150 0 284 -4 297 -9 34 -13 40 -38 17 -61 -19 -19 -34
-20 -301 -20 -247 0 -283 -2 -293 -16 -19 -25 -86 -21 -108 6 -34 42 -21 105
25 125 33 14 60 10 78 -11z m993 -158 c73 -30 102 -107 67 -178 -26 -54 -65
-78 -126 -78 -42 0 -52 5 -87 40 -39 39 -40 42 -36 95 5 58 21 84 73 116 36
23 64 24 109 5z m-1005 -72 c20 -14 59 -16 295 -15 166 1 282 -2 299 -8 33
-13 37 -55 8 -71 -12 -6 -124 -10 -295 -10 -263 0 -277 -1 -296 -20 -57 -57
-144 16 -114 95 4 10 21 23 38 31 39 17 37 17 65 -2z m5421 -704 c0 -5 -9 -10
-20 -10 -11 0 -20 5 -20 10 0 6 9 10 20 10 11 0 20 -4 20 -10z m-1270 -410 c0
-5 -17 -9 -37 -9 -38 1 -38 1 -8 9 43 11 45 11 45 0z m50 0 c0 -5 -7 -10 -15
-10 -8 0 -15 5 -15 10 0 6 7 10 15 10 8 0 15 -4 15 -10z m-3090 -10 c0 -5 -2
-10 -4 -10 -3 0 -8 5 -11 10 -3 6 -1 10 4 10 6 0 11 -4 11 -10z m260 -10 c0
-5 -4 -10 -10 -10 -5 0 -10 5 -10 10 0 6 5 10 10 10 6 0 10 -4 10 -10z m1397
4 c-3 -3 -12 -4 -19 -1 -8 3 -5 6 6 6 11 1 17 -2 13 -5z m1163 -24 c0 -5 -4
-10 -10 -10 -5 0 -10 5 -10 10 0 6 5 10 10 10 6 0 10 -4 10 -10z"/>
<path d="M6868 7650 c-74 -19 -148 -80 -185 -154 l-20 -39 -75 2 c-68 2 -78 0
-107 -24 -39 -34 -41 -72 -5 -106 23 -21 35 -24 107 -24 l81 0 24 -47 c26 -52
85 -110 137 -135 l34 -16 3 -120 c3 -116 4 -120 29 -140 31 -23 74 -17 108 14
19 18 21 30 21 132 l0 112 37 20 c60 32 107 80 133 134 l23 51 83 0 c73 0 86
3 104 22 27 29 26 79 -1 104 -16 15 -40 20 -105 23 l-85 3 -18 37 c-25 46 -84
103 -138 131 -48 24 -131 33 -185 20z m122 -163 c35 -18 70 -74 70 -115 0 -52
-63 -112 -117 -112 -55 0 -104 35 -122 86 -13 38 -13 44 5 80 32 62 106 90
164 61z"/>
<path d="M4850 7623 c-61 -9 -170 -57 -225 -98 -75 -57 -147 -142 -185 -221
-58 -120 -60 -140 -60 -704 l0 -516 -41 -39 c-85 -82 -105 -175 -60 -268 28
-58 101 -111 177 -128 52 -12 88 -7 342 42 l52 10 0 515 0 514 -100 0 c-55 0
-100 4 -100 9 0 15 308 381 320 381 5 0 28 -23 52 -52 23 -29 99 -115 167
-193 l123 -140 -101 -3 -101 -3 -2 -627 -3 -627 -52 3 c-119 8 -246 -41 -322
-124 -67 -74 -93 -133 -99 -227 -6 -95 9 -151 59 -226 192 -287 635 -195 708
147 8 37 11 300 11 855 l0 802 45 69 c91 140 112 306 60 462 -14 44 -33 90
-42 104 -89 141 -215 237 -360 275 -53 14 -200 18 -263 8z m230 -199 c86 -26
177 -99 228 -184 25 -43 57 -153 49 -172 -5 -15 -67 -22 -99 -12 -10 3 -18 15
-18 27 -1 56 -81 171 -141 203 -89 46 -206 37 -282 -20 -56 -42 -104 -116
-113 -171 l-6 -45 -60 0 -60 0 4 53 c11 138 129 278 271 322 58 19 163 18 227
-1z m-521 -1354 c54 -15 98 -65 112 -125 11 -48 10 -54 -14 -92 -27 -42 -94
-83 -135 -83 -63 0 -133 61 -145 126 -13 68 36 155 96 173 43 12 47 12 86 1z
m530 -810 c98 -50 127 -159 66 -251 -61 -94 -196 -103 -277 -18 -61 64 -64
159 -5 226 56 64 142 81 216 43z"/>
<path d="M4967 5152 c-21 -23 -22 -75 -1 -92 25 -21 75 -16 96 9 23 30 23 56
-2 81 -25 25 -72 26 -93 2z"/>
<path d="M5765 6946 c-119 -54 -148 -206 -56 -297 84 -84 210 -67 276 37 l28
44 138 0 139 0 14 -33 c27 -66 120 -116 191 -103 72 14 138 82 150 157 10 60
-32 140 -91 175 -38 23 -53 26 -105 22 -67 -5 -101 -25 -138 -81 l-24 -37
-142 0 -143 0 -12 29 c-33 80 -145 123 -225 87z"/>
<path d="M7335 6950 c-55 -8 -81 -24 -115 -72 -26 -35 -30 -50 -30 -103 0 -71
23 -116 77 -150 l32 -20 1 -575 0 -575 -37 -20 c-49 -26 -80 -73 -88 -135 -6
-43 -3 -59 19 -103 83 -171 336 -108 336 84 0 22 -6 54 -14 72 -13 32 -78 97
-96 97 -11 0 -14 1098 -4 1135 3 11 22 30 43 42 74 43 101 146 60 230 -35 72
-101 105 -184 93z"/>
<path d="M6915 6515 c-23 -8 -58 -33 -82 -59 l-41 -46 -300 0 c-277 0 -300 -1
-315 -18 -21 -23 -22 -46 -1 -66 13 -14 56 -16 319 -16 l303 0 6 -24 c8 -33
52 -83 89 -103 39 -20 115 -20 153 0 63 33 94 87 94 163 0 82 -47 146 -124
169 -59 18 -51 18 -101 0z"/>
<path d="M5720 6271 c-78 -24 -111 -58 -130 -134 -20 -76 21 -169 87 -201 l33
-16 0 -548 0 -549 -37 -11 c-83 -25 -154 -113 -174 -214 -28 -141 78 -287 232
-320 47 -10 63 -9 113 7 67 21 146 87 179 149 29 56 31 174 2 231 -30 60 -96
121 -154 142 l-51 18 0 552 c0 349 4 553 10 553 16 0 80 61 96 91 20 40 18
113 -6 159 -23 45 -60 73 -115 89 -45 12 -50 12 -85 2z m132 -1639 c62 -61 40
-159 -41 -183 -74 -22 -138 16 -148 87 -15 111 111 175 189 96z"/>
<path d="M6470 6032 l0 -88 -55 -19 -56 -19 -62 62 -63 62 -57 -64 -56 -64 62
-48 c34 -26 63 -48 64 -49 2 -1 -6 -26 -16 -56 l-20 -54 -95 0 -96 0 0 -72 0
-72 96 -3 95 -3 18 -53 18 -52 -56 -43 c-31 -23 -57 -46 -58 -52 -2 -5 21 -38
49 -73 l51 -63 46 43 c76 72 71 71 135 47 l56 -22 0 -89 0 -89 73 3 72 3 5 88
5 88 55 23 55 23 61 -59 60 -58 54 66 53 67 -29 21 c-16 12 -45 36 -65 54
l-37 32 19 37 c11 21 19 43 19 50 0 10 24 13 95 13 l95 0 0 70 0 70 -93 0 -92
0 -18 49 c-9 27 -17 53 -17 59 0 6 29 32 64 58 l64 48 -18 24 c-11 13 -36 42
-56 64 l-36 40 -62 -61 c-34 -33 -67 -61 -73 -61 -6 0 -32 9 -57 20 l-46 19 0
86 0 85 -75 0 -75 0 0 -88z m175 -277 c42 -32 74 -94 75 -144 0 -45 -35 -116
-68 -140 -15 -10 -46 -24 -69 -31 -76 -23 -162 19 -203 101 -25 47 -25 82 -1
134 51 110 177 148 266 80z"/>
<path d="M2905 5591 c-82 -20 -168 -89 -208 -166 -29 -57 -35 -167 -12 -236
24 -72 119 -168 189 -192 148 -50 311 23 378 168 34 75 32 191 -4 261 -66 126
-213 196 -343 165z m105 -226 c32 -16 44 -45 38 -91 -4 -40 -57 -67 -99 -52
-56 20 -66 82 -20 129 34 33 41 35 81 14z"/>
<path d="M7762 5368 c-16 -16 -15 -43 1 -60 11 -11 85 -13 387 -11 382 3 400
5 400 42 0 40 -11 41 -400 41 -279 0 -379 -3 -388 -12z"/>
<path d="M4377 5292 c-24 -27 -21 -59 8 -78 23 -15 27 -15 50 0 46 30 26 96
-28 96 -8 0 -21 -8 -30 -18z"/>
<path d="M7760 5131 c-13 -26 -3 -50 24 -56 11 -3 185 -4 385 -3 334 3 365 4
375 21 8 12 8 22 0 35 -10 16 -42 17 -392 20 -368 2 -382 2 -392 -17z"/>
<path d="M4376 5124 c-19 -18 -21 -55 -4 -72 7 -7 24 -12 38 -12 34 0 50 17
50 52 0 43 -53 64 -84 32z"/>
<path d="M6032 5054 c-50 -35 -48 -115 3 -148 64 -42 135 -2 135 74 0 69 -82
113 -138 74z"/>
<path d="M6847 4999 c-26 -15 -50 -68 -43 -95 10 -39 42 -64 82 -64 47 0 69
13 84 49 32 78 -51 152 -123 110z"/>
<path d="M4364 4945 c-15 -23 -15 -27 0 -50 11 -17 26 -25 44 -25 35 0 52 16
52 50 0 34 -17 50 -52 50 -18 0 -33 -8 -44 -25z"/>
<path d="M7762 4918 c-18 -18 -14 -46 8 -58 12 -7 148 -9 397 -8 l378 3 3 23
c8 52 9 52 -397 52 -280 0 -380 -3 -389 -12z"/>
<path d="M6431 4847 c-18 -7 -51 -28 -73 -46 -103 -87 -105 -250 -4 -339 55
-48 101 -64 172 -60 229 14 287 324 82 429 -50 26 -132 33 -177 16z m146 -102
c110 -73 64 -245 -66 -245 -116 0 -178 117 -109 205 50 64 115 79 175 40z"/>
<path d="M4380 4790 c-17 -17 -20 -33 -20 -125 l0 -104 -29 -15 c-127 -66
-128 -261 -1 -326 134 -68 292 53 259 199 -13 56 -50 107 -95 128 l-34 17 0
107 c0 100 -2 109 -22 123 -29 20 -34 20 -58 -4z"/>
<path d="M2194 4726 c-41 -41 -45 -87 -11 -137 40 -59 114 -64 168 -9 43 42
41 100 -5 146 -28 28 -42 34 -76 34 -34 0 -48 -6 -76 -34z"/>
<path d="M3602 3490 c-36 -22 -52 -54 -52 -106 l0 -34 105 0 105 0 0 40 c0 55
-23 95 -61 109 -44 15 -59 14 -97 -9z"/>
<path d="M3610 3155 c-8 -9 -10 -25 -5 -42 4 -16 7 -43 7 -61 -1 -33 0 -33 41
-30 31 2 41 7 39 18 -2 8 2 32 9 52 11 33 10 40 -6 58 -21 24 -67 26 -85 5z"/>
<path d="M7182 2920 c-46 -21 -89 -61 -104 -100 -6 -14 -13 -54 -17 -90 l-6
-65 -42 -7 c-54 -9 -79 -22 -101 -55 -15 -24 -17 -59 -20 -276 -3 -225 -2
-251 14 -268 16 -18 35 -19 370 -19 194 0 359 3 368 6 14 5 16 38 16 260 0
175 -4 261 -12 279 -13 30 -74 65 -112 65 -31 0 -46 25 -46 77 -1 53 -30 112
-78 155 -66 59 -152 74 -230 38z m176 -364 c28 -27 36 -44 39 -83 4 -42 1 -53
-21 -80 -52 -62 -133 -68 -188 -13 -23 23 -28 37 -28 77 0 60 16 91 60 121 47
32 92 24 138 -22z m66 -324 c25 -23 46 -45 46 -47 0 -3 -85 -5 -190 -5 -120 0
-190 4 -190 10 0 6 3 10 8 10 4 0 25 17 48 38 l40 37 96 0 95 0 47 -43z"/>
<path d="M5401 2534 c-20 -26 -21 -38 -21 -387 l0 -361 43 39 c123 115 147
141 147 160 0 31 36 83 72 105 39 24 80 26 111 5 21 -13 26 -10 109 68 68 64
89 91 99 125 17 59 58 92 114 92 24 0 55 -5 69 -11 23 -11 31 -5 125 82 66 62
96 96 88 101 -7 4 -220 8 -474 8 l-462 0 -20 -26z m266 -176 c62 -58 -23 -151
-90 -98 -33 26 -36 71 -7 100 26 26 68 25 97 -2z"/>
<path d="M6298 2363 c-72 -63 -78 -71 -78 -108 0 -82 -72 -144 -149 -130 -20
4 -45 15 -56 25 -20 18 -21 18 -103 -58 -77 -72 -83 -80 -82 -117 0 -48 -30
-102 -66 -115 -41 -16 -99 -12 -125 9 l-24 18 -109 -102 c-67 -62 -106 -106
-102 -113 5 -9 131 -12 471 -12 502 0 487 -2 500 53 3 12 4 179 3 370 l-3 349
-77 -69z m-119 -403 c50 -26 46 -109 -6 -127 -74 -26 -124 57 -68 112 26 27
46 31 74 15z"/>
<path d="M2895 2390 c-118 -116 -125 -127 -95 -152 12 -10 26 -18 31 -18 4 0
42 35 84 78 l75 77 83 -87 c47 -50 92 -88 102 -88 20 0 245 225 245 245 0 15
-21 35 -38 35 -8 0 -59 -41 -113 -92 l-99 -91 -89 94 -88 94 -98 -95z"/>
<path d="M4388 2218 c-22 -22 -23 -42 -2 -62 13 -13 45 -16 198 -16 201 0 210
3 204 57 l-3 28 -190 5 c-172 5 -192 3 -207 -12z"/>
<path d="M4386 1734 c-9 -8 -16 -24 -16 -33 0 -39 22 -44 216 -42 102 0 189 3
194 6 15 10 17 44 3 64 -13 20 -24 21 -198 21 -154 0 -186 -3 -199 -16z"/>
<path d="M8522 6890 c12 -19 28 -27 28 -14 0 7 -27 34 -34 34 -4 0 -1 -9 6
-20z"/>
<path d="M8840 6729 c0 -5 5 -7 10 -4 6 3 10 8 10 11 0 2 -4 4 -10 4 -5 0 -10
-5 -10 -11z"/>
<path d="M9710 5490 c0 -5 -7 -10 -17 -10 -14 0 -14 -2 3 -21 17 -19 19 -19
22 -4 3 10 9 14 20 10 13 -5 12 -2 -3 15 -20 23 -25 24 -25 10z"/>
<path d="M9763 5425 c0 -8 4 -12 9 -9 5 3 6 10 3 15 -9 13 -12 11 -12 -6z"/>
<path d="M9855 4520 c3 -5 8 -10 11 -10 2 0 4 5 4 10 0 6 -5 10 -11 10 -5 0
-7 -4 -4 -10z"/>
<path d="M9760 4170 c0 -5 5 -10 11 -10 5 0 7 5 4 10 -3 6 -8 10 -11 10 -2 0
-4 -4 -4 -10z"/>
<path d="M9705 4090 c3 -5 1 -10 -4 -10 -6 0 -11 -7 -11 -15 0 -8 5 -15 10
-15 6 0 10 -7 10 -16 0 -8 4 -13 9 -9 6 3 15 -3 21 -12 11 -17 11 -17 6 0 -3
10 -6 23 -6 28 0 5 -7 9 -15 9 -20 0 -19 16 1 24 18 7 9 26 -12 26 -8 0 -12
-4 -9 -10z"/>
<path d="M9700 3749 c0 -5 5 -7 10 -4 6 3 10 8 10 11 0 2 -4 4 -10 4 -5 0 -10
-5 -10 -11z"/>
<path d="M9690 3439 c0 -5 5 -7 10 -4 6 3 10 8 10 11 0 2 -4 4 -10 4 -5 0 -10
-5 -10 -11z"/>
<path d="M9440 2350 c0 -5 5 -10 11 -10 5 0 7 5 4 10 -3 6 -8 10 -11 10 -2 0
-4 -4 -4 -10z"/>
<path d="M8223 885 c-3 -9 -3 -19 1 -22 3 -4 6 1 6 10 0 8 6 18 13 20 9 4 9 6
-1 6 -7 1 -15 -6 -19 -14z"/>
<path d="M2472 687 c9 -7 26 -24 37 -38 l21 -24 -13 27 c-6 15 -23 32 -37 38
-22 9 -23 9 -8 -3z"/>
<path d="M3090 630 c0 -5 5 -10 10 -10 6 0 10 5 10 10 0 6 -4 10 -10 10 -5 0
-10 -4 -10 -10z"/>
<path d="M2575 570 c10 -11 20 -20 23 -20 3 0 -3 9 -13 20 -10 11 -20 20 -23
20 -3 0 3 -9 13 -20z"/>
<path d="M6310 518 c0 -4 7 -8 15 -8 8 0 15 4 15 8 0 5 -7 9 -15 9 -8 0 -15
-4 -15 -9z"/>
<path d="M100 9 c0 -5 5 -7 10 -4 6 3 10 8 10 11 0 2 -4 4 -10 4 -5 0 -10 -5
-10 -11z"/>
</g>
</svg>
